<?xml version="1.0" encoding="us-ascii" standalone="no"?><svg xmlns="http://www.w3.org/2000/svg" xmlns:xlink="http://www.w3.org/1999/xlink" contentStyleType="text/css" height="1122px" preserveAspectRatio="none" style="width:2046px;height:1122px;background:#FFFFFF;" version="1.1" viewBox="0 0 2046 1122" width="2046px" zoomAndPan="magnify"><defs/><g><text fill="#000000" font-family="Monospace" font-size="14" font-weight="bold" lengthAdjust="spacing" textLength="307" x="862.5" y="23.5352">Arquitectura&#160;CI/CD&#160;Appian&#160;-&#160;Vista&#160;general</text><!--cluster GH--><g id="cluster_GH"><polygon fill="none" points="16,53.4883,26,43.4883,1564,43.4883,1564,493.4883,1554,503.4883,16,503.4883,16,53.4883" style="stroke:#181818;stroke-width:1.0;"/><line style="stroke:#181818;stroke-width:1.0;" x1="1554" x2="1564" y1="53.4883" y2="43.4883"/><line style="stroke:#181818;stroke-width:1.0;" x1="16" x2="1554" y1="53.4883" y2="53.4883"/><line style="stroke:#181818;stroke-width:1.0;" x1="1554" x2="1554" y1="53.4883" y2="503.4883"/><text fill="#000000" font-family="Monospace" font-size="14" font-weight="bold" lengthAdjust="spacing" textLength="50" x="761" y="70.0234">GitHub</text></g><!--cluster GH_APPS--><g id="cluster_GH_APPS"><rect fill="none" height="238" rx="2.5" ry="2.5" style="stroke:#181818;stroke-width:1.0;" width="829" x="48" y="160.4883"/><text fill="#000000" font-family="Monospace" font-size="14" font-weight="bold" lengthAdjust="spacing" textLength="145" x="390" y="176.0234">Repos&#160;de&#160;Aplicaci&#243;n</text></g><!--cluster GH_A--><g id="cluster_GH_A"><polygon fill="none" points="88,237.4883,98,227.4883,311,227.4883,311,348.4883,301,358.4883,88,358.4883,88,237.4883" style="stroke:#181818;stroke-width:1.0;"/><line style="stroke:#181818;stroke-width:1.0;" x1="301" x2="311" y1="237.4883" y2="227.4883"/><line style="stroke:#181818;stroke-width:1.0;" x1="88" x2="301" y1="237.4883" y2="237.4883"/><line style="stroke:#181818;stroke-width:1.0;" x1="301" x2="301" y1="237.4883" y2="358.4883"/><text fill="#000000" font-family="Monospace" font-size="14" font-weight="bold" lengthAdjust="spacing" textLength="84" x="153.5" y="254.0234">Repo&#160;App&#160;A</text></g><!--cluster RepoAppB--><g id="cluster_RepoAppB"><polygon fill="none" points="351,237.4883,361,227.4883,574,227.4883,574,348.4883,564,358.4883,351,358.4883,351,237.4883" style="stroke:#181818;stroke-width:1.0;"/><line style="stroke:#181818;stroke-width:1.0;" x1="564" x2="574" y1="237.4883" y2="227.4883"/><line style="stroke:#181818;stroke-width:1.0;" x1="351" x2="564" y1="237.4883" y2="237.4883"/><line style="stroke:#181818;stroke-width:1.0;" x1="564" x2="564" y1="237.4883" y2="358.4883"/><text fill="#000000" font-family="Monospace" font-size="14" font-weight="bold" lengthAdjust="spacing" textLength="73" x="422" y="254.0234">RepoAppB</text></g><!--cluster RepoAppN--><g id="cluster_RepoAppN"><polygon fill="none" points="614,237.4883,624,227.4883,837,227.4883,837,348.4883,827,358.4883,614,358.4883,614,237.4883" style="stroke:#181818;stroke-width:1.0;"/><line style="stroke:#181818;stroke-width:1.0;" x1="827" x2="837" y1="237.4883" y2="227.4883"/><line style="stroke:#181818;stroke-width:1.0;" x1="614" x2="827" y1="237.4883" y2="237.4883"/><line style="stroke:#181818;stroke-width:1.0;" x1="827" x2="827" y1="237.4883" y2="358.4883"/><text fill="#000000" font-family="Monospace" font-size="14" font-weight="bold" lengthAdjust="spacing" textLength="75" x="684" y="254.0234">RepoAppN</text></g><!--cluster GH_CORE--><g id="cluster_GH_CORE"><polygon fill="none" points="917,109.4883,927,99.4883,1532,99.4883,1532,461.4883,1522,471.4883,917,471.4883,917,109.4883" style="stroke:#181818;stroke-width:1.0;"/><line style="stroke:#181818;stroke-width:1.0;" x1="1522" x2="1532" y1="109.4883" y2="99.4883"/><line style="stroke:#181818;stroke-width:1.0;" x1="917" x2="1522" y1="109.4883" y2="109.4883"/><line style="stroke:#181818;stroke-width:1.0;" x1="1522" x2="1522" y1="109.4883" y2="471.4883"/><text fill="#000000" font-family="Monospace" font-size="14" font-weight="bold" lengthAdjust="spacing" textLength="74" x="1183.5" y="126.0234">Repo&#160;Core</text></g><!--cluster COREPKG--><g id="cluster_COREPKG"><path d="M959.5,171.4883 L1075.5,171.4883 A3.75,3.75 0 0 1 1078,173.9883 L1085,193.9766 L1328.5,193.9766 A2.5,2.5 0 0 1 1331,196.4766 L1331,428.9883 A2.5,2.5 0 0 1 1328.5,431.4883 L959.5,431.4883 A2.5,2.5 0 0 1 957,428.9883 L957,173.9883 A2.5,2.5 0 0 1 959.5,171.4883 " fill="none" style="stroke:#000000;stroke-width:1.5;"/><line style="stroke:#000000;stroke-width:1.5;" x1="957" x2="1085" y1="193.9766" y2="193.9766"/><text fill="#000000" font-family="Monospace" font-size="14" font-weight="bold" lengthAdjust="spacing" textLength="115" x="961" y="187.0234">Workflows&#160;Core</text></g><!--cluster AWS--><g id="cluster_AWS"><polygon fill="none" points="1373,537.4883,1383,527.4883,2029,527.4883,2029,700.4883,2019,710.4883,1373,710.4883,1373,537.4883" style="stroke:#181818;stroke-width:1.0;"/><line style="stroke:#181818;stroke-width:1.0;" x1="2019" x2="2029" y1="537.4883" y2="527.4883"/><line style="stroke:#181818;stroke-width:1.0;" x1="1373" x2="2019" y1="537.4883" y2="537.4883"/><line style="stroke:#181818;stroke-width:1.0;" x1="2019" x2="2019" y1="537.4883" y2="710.4883"/><text fill="#000000" font-family="Monospace" font-size="14" font-weight="bold" lengthAdjust="spacing" textLength="31" x="1681.5" y="554.0234">AWS</text></g><!--cluster APPCLOUD--><g id="cluster_APPCLOUD"><polygon fill="none" points="1363,744.4883,1373,734.4883,1769,734.4883,1769,988.4883,1759,998.4883,1363,998.4883,1363,744.4883" style="stroke:#181818;stroke-width:1.0;"/><line style="stroke:#181818;stroke-width:1.0;" x1="1759" x2="1769" y1="744.4883" y2="734.4883"/><line style="stroke:#181818;stroke-width:1.0;" x1="1363" x2="1759" y1="744.4883" y2="744.4883"/><line style="stroke:#181818;stroke-width:1.0;" x1="1759" x2="1759" y1="744.4883" y2="998.4883"/><text fill="#000000" font-family="Monospace" font-size="14" font-weight="bold" lengthAdjust="spacing" textLength="97" x="1513.5" y="761.0234">Appian&#160;Cloud</text></g><!--entity D_A--><g id="elem_D_A"><rect fill="#F1F1F1" height="39.4883" rx="2.5" ry="2.5" style="stroke:#181818;stroke-width:0.5;" width="175" x="112" y="275.7483"/><polygon fill="#F1F1F1" points="270,280.7483,270,294.7483,282,294.7483,282,286.7483,276,280.7483,270,280.7483" style="stroke:#181818;stroke-width:0.5;"/><line style="stroke:#181818;stroke-width:0.5;" x1="276" x2="276" y1="280.7483" y2="286.7483"/><line style="stroke:#181818;stroke-width:0.5;" x1="282" x2="276" y1="286.7483" y2="286.7483"/><text fill="#000000" font-family="Monospace" font-size="14" lengthAdjust="spacing" textLength="145" x="122" y="302.2834">deploy.yml&#160;(wrapper)</text></g><!--entity D_B--><g id="elem_D_B"><rect fill="#F1F1F1" height="39.4883" rx="2.5" ry="2.5" style="stroke:#181818;stroke-width:0.5;" width="175" x="375" y="275.7483"/><polygon fill="#F1F1F1" points="533,280.7483,533,294.7483,545,294.7483,545,286.7483,539,280.7483,533,280.7483" style="stroke:#181818;stroke-width:0.5;"/><line style="stroke:#181818;stroke-width:0.5;" x1="539" x2="539" y1="280.7483" y2="286.7483"/><line style="stroke:#181818;stroke-width:0.5;" x1="545" x2="539" y1="286.7483" y2="286.7483"/><text fill="#000000" font-family="Monospace" font-size="14" lengthAdjust="spacing" textLength="145" x="385" y="302.2834">deploy.yml&#160;(wrapper)</text></g><!--entity D_N--><g id="elem_D_N"><rect fill="#F1F1F1" height="39.4883" rx="2.5" ry="2.5" style="stroke:#181818;stroke-width:0.5;" width="175" x="638" y="294.7483"/><polygon fill="#F1F1F1" points="796,299.7483,796,313.7483,808,313.7483,808,305.7483,802,299.7483,796,299.7483" style="stroke:#181818;stroke-width:0.5;"/><line style="stroke:#181818;stroke-width:0.5;" x1="802" x2="802" y1="299.7483" y2="305.7483"/><line style="stroke:#181818;stroke-width:0.5;" x1="808" x2="802" y1="305.7483" y2="305.7483"/><text fill="#000000" font-family="Monospace" font-size="14" lengthAdjust="spacing" textLength="145" x="648" y="321.2834">deploy.yml&#160;(wrapper)</text></g><!--entity CORELIB--><g id="elem_CORELIB"><rect fill="#F1F1F1" height="39.4883" rx="2.5" ry="2.5" style="stroke:#181818;stroke-width:0.5;" width="83" x="1425" y="178.7483"/><polygon fill="#F1F1F1" points="1491,183.7483,1491,197.7483,1503,197.7483,1503,189.7483,1497,183.7483,1491,183.7483" style="stroke:#181818;stroke-width:0.5;"/><line style="stroke:#181818;stroke-width:0.5;" x1="1497" x2="1497" y1="183.7483" y2="189.7483"/><line style="stroke:#181818;stroke-width:0.5;" x1="1503" x2="1497" y1="189.7483" y2="189.7483"/><text fill="#000000" font-family="Monospace" font-size="14" lengthAdjust="spacing" textLength="53" x="1435" y="205.2834">CoreLib</text></g><!--entity WF_EXPORT--><g id="elem_WF_EXPORT"><rect fill="#F1F1F1" height="39.4883" rx="2.5" ry="2.5" style="stroke:#181818;stroke-width:0.5;" width="104" x="1092" y="233.7483"/><polygon fill="#F1F1F1" points="1179,238.7483,1179,252.7483,1191,252.7483,1191,244.7483,1185,238.7483,1179,238.7483" style="stroke:#181818;stroke-width:0.5;"/><line style="stroke:#181818;stroke-width:0.5;" x1="1185" x2="1185" y1="238.7483" y2="244.7483"/><line style="stroke:#181818;stroke-width:0.5;" x1="1191" x2="1185" y1="244.7483" y2="244.7483"/><text fill="#000000" font-family="Monospace" font-size="14" lengthAdjust="spacing" textLength="74" x="1102" y="260.2834">export.yml</text></g><!--entity WF_PROMOTE--><g id="elem_WF_PROMOTE"><rect fill="#F1F1F1" height="39.4883" rx="2.5" ry="2.5" style="stroke:#181818;stroke-width:0.5;" width="117" x="1085.5" y="367.7483"/><polygon fill="#F1F1F1" points="1185.5,372.7483,1185.5,386.7483,1197.5,386.7483,1197.5,378.7483,1191.5,372.7483,1185.5,372.7483" style="stroke:#181818;stroke-width:0.5;"/><line style="stroke:#181818;stroke-width:0.5;" x1="1191.5" x2="1191.5" y1="372.7483" y2="378.7483"/><line style="stroke:#181818;stroke-width:0.5;" x1="1197.5" x2="1191.5" y1="378.7483" y2="378.7483"/><text fill="#000000" font-family="Monospace" font-size="14" lengthAdjust="spacing" textLength="87" x="1095.5" y="394.2834">promote.yml</text></g><g id="elem_GMN16"><path d="M981,307.8283 L981,333.1388 A0,0 0 0 0 981,333.1388 L1140,333.1388 L1144,367.3883 L1148,333.1388 L1307,333.1388 A0,0 0 0 0 1307,333.1388 L1307,317.8283 L1297,307.8283 L981,307.8283 A0,0 0 0 0 981,307.8283 " fill="#FEFFDD" style="stroke:#181818;stroke-width:0.5;"/><path d="M1297,307.8283 L1297,317.8283 L1307,317.8283 L1297,307.8283 " fill="#FEFFDD" style="stroke:#181818;stroke-width:0.5;"/><text fill="#000000" font-family="Monospace" font-size="13" lengthAdjust="spacing" textLength="305" x="987" y="325.3966">Orquesta&#160;internamente&#160;inspect.yml&#160;e&#160;import.yml</text></g><!--entity IAM--><g id="elem_IAM"><polygon fill="#F1F1F1" points="1389,658.2483,1399,648.2483,1544,648.2483,1544,684.7366,1534,694.7366,1389,694.7366,1389,658.2483" style="stroke:#181818;stroke-width:0.5;"/><line style="stroke:#181818;stroke-width:0.5;" x1="1534" x2="1544" y1="658.2483" y2="648.2483"/><line style="stroke:#181818;stroke-width:0.5;" x1="1389" x2="1534" y1="658.2483" y2="658.2483"/><line style="stroke:#181818;stroke-width:0.5;" x1="1534" x2="1534" y1="658.2483" y2="694.7366"/><text fill="#000000" font-family="Monospace" font-size="14" lengthAdjust="spacing" textLength="115" x="1404" y="681.7834">IAM&#160;(OIDC&#160;/&#160;STS)</text></g><!--entity APIGW--><g id="elem_APIGW"><polygon fill="#F1F1F1" points="1405,577.2483,1415,567.2483,1528,567.2483,1528,603.7366,1518,613.7366,1405,613.7366,1405,577.2483" style="stroke:#181818;stroke-width:0.5;"/><line style="stroke:#181818;stroke-width:0.5;" x1="1518" x2="1528" y1="577.2483" y2="567.2483"/><line style="stroke:#181818;stroke-width:0.5;" x1="1405" x2="1518" y1="577.2483" y2="577.2483"/><line style="stroke:#181818;stroke-width:0.5;" x1="1518" x2="1518" y1="577.2483" y2="613.7366"/><text fill="#000000" font-family="Monospace" font-size="14" lengthAdjust="spacing" textLength="83" x="1420" y="600.7834">API&#160;Gateway</text></g><!--entity LMB--><g id="elem_LMB"><polygon fill="#F1F1F1" points="1614,581.2483,1624,571.2483,1820,571.2483,1820,607.7366,1810,617.7366,1614,617.7366,1614,581.2483" style="stroke:#181818;stroke-width:0.5;"/><line style="stroke:#181818;stroke-width:0.5;" x1="1810" x2="1820" y1="581.2483" y2="571.2483"/><line style="stroke:#181818;stroke-width:0.5;" x1="1614" x2="1810" y1="581.2483" y2="581.2483"/><line style="stroke:#181818;stroke-width:0.5;" x1="1810" x2="1810" y1="581.2483" y2="617.7366"/><text fill="#000000" font-family="Monospace" font-size="14" lengthAdjust="spacing" textLength="166" x="1629" y="604.7834">Lambda&#160;(Secrets&#160;Broker)</text></g><!--entity SM--><g id="elem_SM"><path d="M1880,577.4983 C1880,567.4983 1946.5,567.4983 1946.5,567.4983 C1946.5,567.4983 2013,567.4983 2013,577.4983 L2013,619.4748 C2013,629.4748 1946.5,629.4748 1946.5,629.4748 C1946.5,629.4748 1880,629.4748 1880,619.4748 L1880,577.4983 " fill="#F1F1F1" style="stroke:#181818;stroke-width:0.5;"/><path d="M1880,577.4983 C1880,587.4983 1946.5,587.4983 1946.5,587.4983 C1946.5,587.4983 2013,587.4983 2013,577.4983 " fill="none" style="stroke:#181818;stroke-width:0.5;"/><text fill="#000000" font-family="Monospace" font-size="14" lengthAdjust="spacing" textLength="113" x="1890" y="605.0334">Secrets&#160;Manager</text><text fill="#000000" font-family="Monospace" font-size="14" lengthAdjust="spacing" textLength="102" x="1890" y="621.5217">appian/{env}/*</text></g><!--entity DEV--><g id="elem_DEV"><polygon fill="#F1F1F1" points="1684.5,784.2483,1694.5,774.2483,1749.5,774.2483,1749.5,810.7366,1739.5,820.7366,1684.5,820.7366,1684.5,784.2483" style="stroke:#181818;stroke-width:0.5;"/><line style="stroke:#181818;stroke-width:0.5;" x1="1739.5" x2="1749.5" y1="784.2483" y2="774.2483"/><line style="stroke:#181818;stroke-width:0.5;" x1="1684.5" x2="1739.5" y1="784.2483" y2="784.2483"/><line style="stroke:#181818;stroke-width:0.5;" x1="1739.5" x2="1739.5" y1="784.2483" y2="820.7366"/><text fill="#000000" font-family="Monospace" font-size="14" lengthAdjust="spacing" textLength="25" x="1699.5" y="807.7834">Dev</text></g><!--entity QA--><g id="elem_QA"><polygon fill="#F1F1F1" points="1686.5,946.2483,1696.5,936.2483,1747.5,936.2483,1747.5,972.7366,1737.5,982.7366,1686.5,982.7366,1686.5,946.2483" style="stroke:#181818;stroke-width:0.5;"/><line style="stroke:#181818;stroke-width:0.5;" x1="1737.5" x2="1747.5" y1="946.2483" y2="936.2483"/><line style="stroke:#181818;stroke-width:0.5;" x1="1686.5" x2="1737.5" y1="946.2483" y2="946.2483"/><line style="stroke:#181818;stroke-width:0.5;" x1="1737.5" x2="1737.5" y1="946.2483" y2="982.7366"/><text fill="#000000" font-family="Monospace" font-size="14" lengthAdjust="spacing" textLength="21" x="1701.5" y="969.7834">QA</text></g><!--entity PROD--><g id="elem_PROD"><polygon fill="#F1F1F1" points="1681,865.2483,1691,855.2483,1753,855.2483,1753,891.7366,1743,901.7366,1681,901.7366,1681,865.2483" style="stroke:#181818;stroke-width:0.5;"/><line style="stroke:#181818;stroke-width:0.5;" x1="1743" x2="1753" y1="865.2483" y2="855.2483"/><line style="stroke:#181818;stroke-width:0.5;" x1="1681" x2="1743" y1="865.2483" y2="865.2483"/><line style="stroke:#181818;stroke-width:0.5;" x1="1743" x2="1743" y1="865.2483" y2="901.7366"/><text fill="#000000" font-family="Monospace" font-size="14" lengthAdjust="spacing" textLength="32" x="1696" y="888.7834">Prod</text></g><!--entity APIDEV2--><g id="elem_APIDEV2"><rect fill="#F1F1F1" height="46.4883" rx="2.5" ry="2.5" style="stroke:#181818;stroke-width:0.5;" width="175" x="1379" y="815.2483"/><rect fill="#F1F1F1" height="10" style="stroke:#181818;stroke-width:0.5;" width="15" x="1534" y="820.2483"/><rect fill="#F1F1F1" height="2" style="stroke:#181818;stroke-width:0.5;" width="4" x="1532" y="822.2483"/><rect fill="#F1F1F1" height="2" style="stroke:#181818;stroke-width:0.5;" width="4" x="1532" y="826.2483"/><text fill="#000000" font-family="Monospace" font-size="14" lengthAdjust="spacing" textLength="135" x="1394" y="848.7834">Deployment&#160;APIs&#160;v2</text></g><!--link GH_A to RepoAppB--><!--link RepoAppB to RepoAppN--><!--link GH_APPS to GH_CORE--><!--link D_A to COREPKG--><g id="link_D_A_COREPKG"><path d="M244,275.3083 C244,242.8383 244,182.6183 244,182.6183 C244,182.6183 468.75,182.6183 693.5,182.6183 C749.6875,182.6183 805.875,182.6183 858.5508,182.6183 C884.8887,182.6183 910.3486,182.6183 934.4917,182.6183 C940.5275,182.6183 946.4809,182.6183 952.3452,182.6183 C953.8113,182.6183 949.2718,182.6183 950.7266,182.6183 " fill="none" id="D_A-to-COREPKG" style="stroke:#181818;stroke-width:1.0;"/><polygon fill="#181818" points="956.7266,182.6183,947.7266,178.6183,951.7266,182.6183,947.7266,186.6183,956.7266,182.6183" style="stroke:#181818;stroke-width:1.0;"/><text fill="#000000" font-family="Monospace" font-size="13" lengthAdjust="spacing" textLength="87" x="567.07" y="196.1866">workflow_call</text></g><!--link D_B to COREPKG--><g id="link_D_B_COREPKG"><path d="M462,275.3183 C462,246.8083 462,198.1583 462,198.1583 C462,198.1583 625.905,198.1583 793.0113,198.1583 C834.7878,198.1583 876.7645,198.1583 916.4302,198.1583 C926.3466,198.1583 936.1186,198.1583 945.7069,198.1583 C948.104,198.1583 950.4896,198.1583 952.8631,198.1583 C954.0499,198.1583 949.2336,198.1583 950.4143,198.1583 " fill="none" id="D_B-to-COREPKG" style="stroke:#181818;stroke-width:1.0;"/><polygon fill="#181818" points="956.4143,198.1583,947.4143,194.1583,951.4143,198.1583,947.4143,202.1583,956.4143,198.1583" style="stroke:#181818;stroke-width:1.0;"/><text fill="#000000" font-family="Monospace" font-size="13" lengthAdjust="spacing" textLength="87" x="676.03" y="211.7266">workflow_call</text></g><!--link D_N to COREPKG--><g id="link_D_N_COREPKG"><path d="M770,294.3383 C770,261.1983 770,198.8183 770,198.8183 C770,198.8183 859.1675,198.8183 950.425,198.8183 C951.8509,198.8183 953.2773,198.8183 954.7039,198.8183 C955.4172,198.8183 950.1305,198.8183 950.8439,198.8183 " fill="none" id="D_N-to-COREPKG" style="stroke:#181818;stroke-width:1.0;"/><polygon fill="#181818" points="956.8439,198.8183,947.8439,194.8183,951.8439,198.8183,947.8439,202.8183,956.8439,198.8183" style="stroke:#181818;stroke-width:1.0;"/><text fill="#000000" font-family="Monospace" font-size="13" lengthAdjust="spacing" textLength="87" x="820.94" y="212.3866">workflow_call</text></g><!--link COREPKG to CORELIB--><g id="link_COREPKG_CORELIB"><path d="M1331.316,198.4883 C1331.7833,198.4883 1332.2502,198.4883 1332.7168,198.4883 C1333.65,198.4883 1334.5819,198.4883 1335.5125,198.4883 C1339.2347,198.4883 1342.9345,198.4883 1346.6038,198.4883 C1375.9575,198.4883 1397.35,198.4883 1418.52,198.4883 " fill="none" id="COREPKG-to-CORELIB" style="stroke:#181818;stroke-width:1.0;stroke-dasharray:7.0,7.0;"/><polygon fill="#181818" points="1424.52,198.4883,1415.52,194.4883,1419.52,198.4883,1415.52,202.4883,1424.52,198.4883" style="stroke:#181818;stroke-width:1.0;"/><text fill="#000000" font-family="Monospace" font-size="13" lengthAdjust="spacing" textLength="125" x="1158.52" y="212.0566">dependencia&#160;(reuse)</text></g><!--link COREPKG to IAM--><g id="link_COREPKG_IAM"><path d="M1331.8462,187.4883 C1332.2846,187.4883 1332.7217,187.4883 1333.1574,187.4883 C1334.9004,187.4883 1336.6222,187.4883 1338.3208,187.4883 C1345.1152,187.4883 1351.5391,187.4883 1357.4688,187.4883 C1381.1875,187.4883 1397,187.4883 1397,187.4883 C1397,187.4883 1397,544.6483 1397,641.8183 " fill="none" id="COREPKG-to-IAM" style="stroke:#181818;stroke-width:1.0;"/><polygon fill="#181818" points="1397,647.8183,1401,638.8183,1397,642.8183,1393,638.8183,1397,647.8183" style="stroke:#181818;stroke-width:1.0;"/><text fill="#000000" font-family="Monospace" font-size="13" lengthAdjust="spacing" textLength="179" x="1217" y="299.5766">AssumeRoleWithWebIdentity</text></g><!--link COREPKG to APIGW--><g id="link_COREPKG_APIGW"><path d="M1331.5912,225.9883 C1332.0755,225.9883 1332.5586,225.9883 1333.0407,225.9883 C1334.9688,225.9883 1336.8785,225.9883 1338.7678,225.9883 C1342.5464,225.9883 1346.2432,225.9883 1349.8418,225.9883 C1357.0391,225.9883 1363.8438,225.9883 1370.125,225.9883 C1395.25,225.9883 1412,225.9883 1412,225.9883 C1412,225.9883 1412,480.0783 1412,560.8483 " fill="none" id="COREPKG-to-APIGW" style="stroke:#181818;stroke-width:1.0;"/><polygon fill="#181818" points="1412,566.8483,1416,557.8483,1412,561.8483,1408,557.8483,1412,566.8483" style="stroke:#181818;stroke-width:1.0;"/><text fill="#000000" font-family="Monospace" font-size="13" lengthAdjust="spacing" textLength="140" x="1271" y="262.5766">HTTPS&#160;(signed/bearer)</text></g><!--link APIGW to COREPKG--><g id="link_APIGW_COREPKG"><path d="M1418,566.8083 C1418,481.2383 1418,192.9883 1418,192.9883 C1418,192.9883 1400.875,192.9883 1375.1875,192.9883 C1362.3438,192.9883 1353.3594,192.9883 1337.3047,192.9883 " fill="none" id="APIGW-to-COREPKG" style="stroke:#181818;stroke-width:1.0;"/><polygon fill="#181818" points="1331.3047,192.9883,1340.3047,196.9883,1336.3047,192.9883,1340.3047,188.9883,1331.3047,192.9883" style="stroke:#181818;stroke-width:1.0;"/><text fill="#000000" font-family="Monospace" font-size="13" lengthAdjust="spacing" textLength="112" x="1419" y="254.1466">secrets&#160;(memoria)</text></g><!--link APIGW to LMB--><g id="link_APIGW_LMB"><path d="M1528.42,599.5683 C1554.21,599.5683 1578.86,599.5683 1607.88,599.5683 " fill="none" id="APIGW-to-LMB" style="stroke:#181818;stroke-width:1.0;"/><polygon fill="#181818" points="1613.88,599.5683,1604.88,595.5683,1608.88,599.5683,1604.88,603.5683,1613.88,599.5683" style="stroke:#181818;stroke-width:1.0;"/><text fill="#000000" font-family="Monospace" font-size="13" lengthAdjust="spacing" textLength="42" x="1528.15" y="613.1366">invoke</text></g><!--link LMB to APIGW--><g id="link_LMB_APIGW"><path d="M1613.67,585.4083 C1584.69,585.4083 1560.1,585.4083 1534.36,585.4083 " fill="none" id="LMB-to-APIGW" style="stroke:#181818;stroke-width:1.0;"/><polygon fill="#181818" points="1528.36,585.4083,1537.36,589.4083,1533.36,585.4083,1537.36,581.4083,1528.36,585.4083" style="stroke:#181818;stroke-width:1.0;"/></g><!--link LMB to SM--><g id="link_LMB_SM"><path d="M1820.34,586.7383 C1840.44,586.7383 1855.02,586.7383 1873.57,586.7383 " fill="none" id="LMB-to-SM" style="stroke:#181818;stroke-width:1.0;"/><polygon fill="#181818" points="1879.57,586.7383,1870.57,582.7383,1874.57,586.7383,1870.57,590.7383,1879.57,586.7383" style="stroke:#181818;stroke-width:1.0;"/><text fill="#000000" font-family="Monospace" font-size="13" lengthAdjust="spacing" textLength="93" x="1755.95" y="583.3066">GetSecretValue</text></g><!--link SM to LMB--><g id="link_SM_LMB"><path d="M1879.5,602.2383 C1860.98,602.2383 1846.44,602.2383 1826.36,602.2383 " fill="none" id="SM-to-LMB" style="stroke:#181818;stroke-width:1.0;"/><polygon fill="#181818" points="1820.36,602.2383,1829.36,606.2383,1825.36,602.2383,1829.36,598.2383,1820.36,602.2383" style="stroke:#181818;stroke-width:1.0;"/></g><!--link COREPKG to APIDEV2--><g id="link_COREPKG_APIDEV2"><path d="M1331.9236,208.8583 C1332.3179,208.8583 1332.7108,208.8583 1333.1022,208.8583 C1334.6677,208.8583 1336.2095,208.8583 1337.7256,208.8583 C1340.7578,208.8583 1343.6875,208.8583 1346.5,208.8583 C1369,208.8583 1384,208.8583 1384,208.8583 C1384,208.8583 1384,694.6483 1384,808.9583 " fill="none" id="COREPKG-to-APIDEV2" style="stroke:#181818;stroke-width:1.0;"/><polygon fill="#181818" points="1384,814.9583,1388,805.9583,1384,809.9583,1380,805.9583,1384,814.9583" style="stroke:#181818;stroke-width:1.0;"/><text fill="#000000" font-family="Monospace" font-size="13" lengthAdjust="spacing" textLength="143" x="1240" y="400.6266">export/inspect/import</text></g><!--link APIDEV2 to DEV--><g id="link_APIDEV2_DEV"><path d="M1549,814.8283 C1549,804.5183 1549,794.7483 1549,794.7483 C1549,794.7483 1629.32,794.7483 1678.21,794.7483 " fill="none" id="APIDEV2-to-DEV" style="stroke:#181818;stroke-width:1.0;"/><polygon fill="#181818" points="1684.21,794.7483,1675.21,790.7483,1679.21,794.7483,1675.21,798.7483,1684.21,794.7483" style="stroke:#181818;stroke-width:1.0;"/></g><!--link APIDEV2 to QA--><g id="link_APIDEV2_QA"><path d="M1467,862.1083 C1467,897.3183 1467,959.4883 1467,959.4883 C1467,959.4883 1613.21,959.4883 1680.09,959.4883 " fill="none" id="APIDEV2-to-QA" style="stroke:#181818;stroke-width:1.0;"/><polygon fill="#181818" points="1686.09,959.4883,1677.09,955.4883,1681.09,959.4883,1677.09,963.4883,1686.09,959.4883" style="stroke:#181818;stroke-width:1.0;"/></g><!--link APIDEV2 to PROD--><g id="link_APIDEV2_PROD"><path d="M1554.46,837.9883 C1626.64,837.9883 1717,837.9883 1717,837.9883 C1717,837.9883 1717,840.0183 1717,848.9283 " fill="none" id="APIDEV2-to-PROD" style="stroke:#181818;stroke-width:1.0;"/><polygon fill="#181818" points="1717,854.9283,1721,845.9283,1717,849.9283,1713,845.9283,1717,854.9283" style="stroke:#181818;stroke-width:1.0;"/></g><rect fill="#DDDDDD" height="75.9531" id="_legend" rx="7.5" ry="7.5" style="stroke:#000000;stroke-width:1.0;" width="264" x="1756" y="1026.4883"/><text fill="#000000" font-family="Monospace" font-size="14" lengthAdjust="spacing" textLength="213" x="1761" y="1045.0234">Rect&#225;ngulos&#160;=&#160;Nodos/servicios</text><text fill="#000000" font-family="Monospace" font-size="14" lengthAdjust="spacing" textLength="254" x="1761" y="1061.5117">Artifact&#160;=&#160;Workflows&#160;YAML&#160;en&#160;GitHub</text><text fill="#000000" font-family="Monospace" font-size="14" lengthAdjust="spacing" textLength="187" x="1761" y="1078">Cilindro&#160;=&#160;Secrets&#160;Manager</text><text fill="#000000" font-family="Monospace" font-size="14" lengthAdjust="spacing" textLength="221" x="1761" y="1094.4883">Flecha&#160;punteada&#160;=&#160;Dependencia</text><!--SRC=[bLNRZjis47tdLmpseN4CU0taCS06aArThr5V5DjTjsYB1IsDPNOfKYKfEqQm7zCFw5C_ON-iGzsi98iMyOCbpXpE3EUSeTx0Z9zruU07a9YAdP0YuGcJk7VWD1YH7Xmamc3iX5RCFWcLSyCpi0UUw9DGAUovjCWwhWJtl93kJYktu1d2N2jjSnvZ1oE5GdVE4RHn1ysOqWd2rKIu-s9t1Tp2v1u-Cm2VcAjKadE5kROK789SYfZ7ukKVLKCVWoXQbtY0Af874p27e8NKVW1kdDZpsC5LWhdKv-jp9g5tCZpFqRmjyU5ZK8AVo_zoz-3NWqWILB_JiTK0V0AAFtejvwYCqI2-B- -eaxUDy7hknMkv5ztSY-_BlMXpFpFsHUInDjWqShnStTPnYTGddX9egytJNkgJlI0zBFfnyae5-2adrdq5L-2Hsxl7sv-ZvMhp3J8tEjCEAsY5Z5RB-N9pMqCLUM6ddTCPwFstVe2b-RD0wpW8vT0eqYCzQM5pKbRP1LfbJK7rDbH96Rh3nQKeVyAPsBM7d4r7JSSQ9RPy3Pg6iUT6uy5sNMwbPzcRoZeDvj1RJiCn366zMLUCaB451D4K9jpXYP-hxT5qicszCvxj4WwzDSO6dOMHqKyDhxEvho_XZk-u9Mo3cND5t9dV56b0S3NyZEhuFEoNUzRpJi6b6yPI5qcTEXhFbZ-5dV93F5PSXhSFhV4ZpLvf_1YqjiZeAWZn598rrjHxHPpu65wOdXz_E0l7Tyr1AUWxNyyRkA4VtCdY3xe9_3iB_MGEFhHgUm-dMegFCPUI_AF_yI_-qz_Ohwy_D6GJXcQ8988g5jHpWuN5jwo5-d2UplSGM5jakD8Ijy8TjhYRqXudtFaBRCaaeUyt6v9EpufKOJBS8JV48Aky7aSy4age8r7B_C8RrpxF15r5wWEN1JAorVWMLgdb4kjoN5khePTXfetWNnsaxZu1gwaTrfCph6Q6DNwFzTntrqHxTraoJXnkNlvsXTIC6a7NUhyVq8GAHp4Bms4y7Ov3g2KtW0VXHpT5XORBVjzld-6PUi_f4vNwCIs_KCpVbR5x-Kkb59ca0GkTQ3kqQ8uY5jeI86W6-0OkjzKlmNn6qmxLXuTGO_e0giHeGdqr9-IyanWVEEG5NI6Snkq6meiG6BrKDR5_0G00]--></g></svg>